<?xml version="1.0" encoding="UTF-8"?>
<svg width="512" height="512" viewBox="0 0 512 512" fill="none" xmlns="http://www.w3.org/2000/svg">
  <!-- Background -->
  <rect width="512" height="512" rx="100" fill="#1976d2"/>
  
  <!-- Calculator Body -->
  <rect x="96" y="64" width="320" height="384" rx="24" fill="white"/>
  
  <!-- Display -->
  <rect x="116" y="96" width="280" height="80" rx="8" fill="#e3f2fd"/>
  
  <!-- Buttons -->
  <g fill="#1976d2">
    <!-- Row 1 -->
    <rect x="116" y="196" width="60" height="60" rx="8"/>
    <rect x="196" y="196" width="60" height="60" rx="8"/>
    <rect x="276" y="196" width="60" height="60" rx="8"/>
    <rect x="356" y="196" width="40" height="60" rx="8"/>
    
    <!-- Row 2 -->
    <rect x="116" y="276" width="60" height="60" rx="8"/>
    <rect x="196" y="276" width="60" height="60" rx="8"/>
    <rect x="276" y="276" width="60" height="60" rx="8"/>
    <rect x="356" y="276" width="40" height="60" rx="8"/>
    
    <!-- Row 3 -->
    <rect x="116" y="356" width="60" height="60" rx="8"/>
    <rect x="196" y="356" width="60" height="60" rx="8"/>
    <rect x="276" y="356" width="60" height="60" rx="8"/>
    <rect x="356" y="356" width="40" height="60" rx="8"/>
  </g>
</svg>
